<?xml version="1.0" standalone="no"?>
<!DOCTYPE svg PUBLIC "-//W3C//DTD SVG 20010904//EN"
 "http://www.w3.org/TR/2001/REC-SVG-20010904/DTD/svg10.dtd">
<svg version="1.0" xmlns="http://www.w3.org/2000/svg"
 width="250.000000pt" height="250.000000pt" viewBox="0 0 250.000000 250.000000"
 preserveAspectRatio="xMidYMid meet">
<metadata>
Created by potrace 1.14, written by Peter Selinger 2001-2017
</metadata>
<g transform="translate(0.000000,250.000000) scale(0.100000,-0.100000)"
fill="#000000" stroke="none">
<path d="M763 2342 c-19 -3 -194 -120 -419 -281 -85 -61 -109 -101 -101 -169
3 -24 13 -56 24 -71 21 -29 509 -276 563 -285 39 -6 27 6 110 -112 l69 -98
-18 -25 c-51 -75 -66 -178 -37 -261 9 -25 16 -51 16 -58 0 -14 -114 -132 -128
-132 -5 0 -31 9 -56 21 -139 61 -299 33 -406 -72 -199 -193 -131 -522 127
-619 58 -22 154 -29 213 -16 103 23 210 112 258 214 23 49 27 70 26 152 0 81
-4 104 -26 151 l-26 57 67 65 66 66 60 -21 c73 -25 148 -21 218 12 52 24 52
25 121 -34 l29 -25 -29 -36 c-87 -109 -100 -153 -68 -221 10 -21 71 -80 163
-157 195 -164 215 -178 256 -184 75 -10 109 15 237 172 31 39 69 84 83 100 14
17 35 40 46 53 73 85 79 169 17 234 -59 62 -344 289 -372 296 -68 18 -132 -13
-196 -95 -18 -24 -35 -43 -39 -43 -4 0 -28 19 -55 42 -46 41 -47 44 -36 73 6
17 12 59 13 95 4 186 -175 332 -358 293 -45 -10 -43 -12 -129 111 l-49 69 -3
101 c-2 55 -5 115 -8 131 -2 17 -7 64 -11 105 -4 41 -8 86 -10 100 -2 14 -7
52 -10 85 -13 127 -27 162 -79 194 -34 21 -73 29 -113 23z m38 -179 c0 -16 2
-35 4 -43 1 -9 6 -49 9 -90 10 -108 19 -200 31 -292 4 -27 4 -48 1 -48 -6 0
-148 67 -301 142 -177 87 -166 72 -93 122 35 24 124 86 198 139 74 53 138 96
143 97 4 0 7 -12 8 -27z m496 -898 c53 -21 86 -73 86 -136 1 -85 -60 -144
-147 -144 -93 1 -154 69 -143 161 6 55 31 93 78 116 42 22 77 23 126 3z m584
-413 c36 -31 88 -75 115 -97 27 -22 64 -53 82 -70 l33 -30 -97 -115 c-53 -63
-110 -132 -127 -152 l-32 -36 -119 99 c-65 55 -134 112 -152 127 l-34 28 57
70 c72 87 84 101 106 127 11 12 35 41 55 65 19 23 38 42 41 42 3 0 36 -26 72
-58z m-1121 -138 c23 -15 52 -47 66 -70 110 -188 -80 -402 -281 -318 -81 33
-141 138 -131 226 20 168 205 255 346 162z"/>
</g>
</svg>
