<svg xmlns="http://www.w3.org/2000/svg" viewBox="0 0 2541.76 2054.88" width="2541.76" height="2054.88" style="background-color: transparent;"><defs><style>@import url('https://fonts.googleapis.com/css2?family=Caveat+Brush&amp;family=Source+Code+Pro&amp;family=Source+Sans+Pro&amp;family=Crimson+Pro&amp;display=block');</style></defs><g id="eec67c08-ec8f-4648-3fad-3cfc9ca99145_svg" class="tl-centered-g" transform="translate(685.86, 16.00) rotate(0.00, 143.00, 195.85)"><path d="M -0.68,303.75 Q -0.68,303.75 -0.65,297.56 -0.62,291.38 -0.60,283.62 -0.57,275.86 -0.54,267.69 -0.51,259.53 -0.49,251.26 -0.46,243.00 -0.43,234.70 -0.40,226.41 -0.38,218.11 -0.35,209.81 -0.35,201.51 -0.35,193.21 -0.38,184.91 -0.41,176.61 -0.44,168.31 -0.46,160.01 -0.49,151.70 -0.52,143.40 -0.55,135.10 -0.58,126.80 -0.61,118.50 -0.64,110.20 -0.67,101.90 -0.69,93.59 -0.72,85.29 -0.75,76.99 -0.78,68.69 -0.81,60.39 -0.84,52.09 -0.87,43.79 -0.90,35.48 -0.93,27.18 -0.95,18.86 -0.97,10.53 0.89,6.38 2.76,2.24 9.91,1.10 17.06,-0.02 25.32,-0.23 33.58,-0.43 42.12,-0.45 50.66,-0.48 59.28,-0.45 67.89,-0.43 76.53,-0.40 85.16,-0.36 93.80,-0.33 102.44,-0.29 111.08,-0.26 119.72,-0.22 128.36,-0.18 137.00,-0.14 145.65,-0.19 154.29,-0.23 162.93,-0.28 171.57,-0.32 180.21,-0.36 188.85,-0.41 197.49,-0.45 206.14,-0.50 214.78,-0.54 223.42,-0.58 232.06,-0.63 240.70,-0.67 249.34,-0.72 257.98,-0.76 266.65,-0.80 275.31,-0.84 279.55,1.02 283.78,2.89 284.94,9.79 286.11,16.69 286.32,24.65 286.53,32.61 286.56,40.82 286.59,49.04 286.57,57.33 286.55,65.62 286.52,73.92 286.49,82.23 286.46,90.54 286.42,98.85 286.39,107.16 286.35,115.48 286.32,123.79 286.28,132.10 286.25,140.41 286.21,148.72 286.18,157.04 286.15,165.35 286.11,173.66 286.08,181.97 286.07,190.29 286.06,198.60 286.09,206.91 286.11,215.22 286.13,223.54 286.15,231.85 286.17,240.16 286.19,248.47 286.22,256.79 286.24,265.10 286.26,273.41 286.28,281.72 286.30,290.04 286.33,298.35 286.35,306.66 286.37,314.97 286.39,323.29 286.41,331.60 286.44,339.91 286.46,348.22 286.48,356.54 286.50,364.85 286.52,373.18 286.54,381.52 284.66,385.67 282.78,389.82 275.64,390.95 268.50,392.07 260.25,392.26 252.00,392.45 243.47,392.45 234.94,392.46 226.33,392.42 217.73,392.39 209.10,392.34 200.48,392.29 191.85,392.23 183.22,392.18 174.59,392.13 165.96,392.08 157.33,392.02 148.69,391.97 140.06,392.00 131.43,392.03 122.80,392.05 114.17,392.08 105.54,392.11 96.90,392.14 88.27,392.17 79.64,392.20 71.01,392.22 62.38,392.25 53.75,392.28 45.12,392.31 36.48,392.34 27.85,392.36 19.20,392.39 10.54,392.41 6.32,390.54 2.09,388.67 0.92,381.77 -0.24,374.88 -0.46,366.93 -0.68,358.98 -0.71,350.78 -0.75,342.57 -0.74,334.29 -0.72,326.02 -0.70,317.72 -0.68,309.43 -0.65,301.13 -0.62,292.83 -0.60,284.53 -0.57,276.22 -0.54,267.92 -0.51,259.62 -0.49,251.32 -0.46,243.02 -0.43,234.72 -0.40,226.42 -0.38,218.12 -0.35,209.81 -0.35,201.51 -0.35,193.21 -0.38,184.91 -0.41,176.61 -0.44,165.47 -0.46,154.32 -0.43,154.14 -0.40,153.96 -0.32,153.80 -0.23,153.63 -0.10,153.51 0.03,153.38 0.19,153.30 0.36,153.22 0.55,153.20 0.73,153.18 0.91,153.22 1.09,153.26 1.25,153.36 1.41,153.45 1.53,153.59 1.64,153.73 1.71,153.91 1.78,154.08 1.79,154.26 1.80,154.45 1.75,154.62 1.70,154.80 1.60,154.95 1.50,155.11 1.35,155.22 1.20,155.33 1.03,155.39 0.85,155.45 0.67,155.45 0.48,155.45 0.31,155.39 0.13,155.33 -0.00,155.22 -0.15,155.11 -0.26,154.95 -0.36,154.80 -0.41,154.62 -0.46,154.45 -0.45,154.26 -0.44,154.08 -0.37,153.91 -0.30,153.73 -0.18,153.59 -0.06,153.45 0.09,153.36 0.24,153.26 0.42,153.22 0.61,153.18 0.79,153.20 0.97,153.22 1.14,153.30 1.31,153.38 1.44,153.51 1.58,153.63 1.66,153.80 1.75,153.96 1.78,154.14 1.81,154.32 1.81,154.32 1.81,154.32 1.78,165.47 1.75,176.61 1.73,184.91 1.70,193.21 1.70,201.51 1.70,209.81 1.73,218.12 1.76,226.42 1.79,234.72 1.81,243.02 1.84,251.32 1.87,259.62 1.90,267.92 1.93,276.22 1.96,284.53 1.99,292.83 2.02,301.13 2.05,309.42 2.08,317.72 2.11,326.01 2.16,334.28 2.20,342.55 2.29,350.72 2.38,358.89 2.64,366.66 2.90,374.43 3.62,380.66 4.33,386.90 7.49,388.01 10.64,389.13 19.25,389.18 27.86,389.23 36.49,389.28 45.12,389.33 53.75,389.39 62.38,389.44 71.01,389.49 79.65,389.55 88.28,389.60 96.91,389.65 105.54,389.70 114.17,389.76 122.80,389.81 131.43,389.86 140.07,389.92 148.70,389.97 157.33,389.94 165.96,389.91 174.59,389.89 183.22,389.86 191.85,389.83 200.48,389.80 209.10,389.77 217.73,389.74 226.32,389.69 234.92,389.65 243.42,389.56 251.92,389.47 260.00,389.22 268.08,388.96 274.56,388.26 281.04,387.56 282.15,384.49 283.25,381.42 283.28,373.13 283.31,364.85 283.35,356.53 283.38,348.22 283.42,339.91 283.45,331.60 283.49,323.28 283.52,314.97 283.56,306.66 283.59,298.35 283.63,290.03 283.66,281.72 283.70,273.41 283.73,265.10 283.76,256.78 283.80,248.47 283.83,240.16 283.87,231.85 283.90,223.53 283.94,215.22 283.97,206.91 284.01,198.60 284.01,190.28 284.02,181.97 284.00,173.66 283.98,165.35 283.95,157.04 283.93,148.72 283.91,140.41 283.89,132.10 283.87,123.79 283.84,115.47 283.82,107.16 283.80,98.85 283.78,90.54 283.75,82.23 283.73,73.92 283.70,65.62 283.66,57.34 283.63,49.06 283.54,40.88 283.46,32.70 283.21,24.92 282.95,17.14 282.24,10.90 281.53,4.65 278.38,3.54 275.22,2.43 266.60,2.40 257.99,2.37 249.34,2.33 240.70,2.29 232.06,2.26 223.42,2.22 214.78,2.18 206.14,2.14 197.50,2.11 188.85,2.07 180.21,2.03 171.57,2.00 162.93,1.96 154.29,1.92 145.65,1.88 137.00,1.85 128.36,1.89 119.72,1.93 111.08,1.98 102.44,2.02 93.80,2.07 85.16,2.11 76.53,2.16 67.90,2.21 59.29,2.27 50.68,2.33 42.17,2.43 33.67,2.53 25.58,2.81 17.48,3.08 11.00,3.79 4.51,4.50 3.41,7.56 2.30,10.63 2.27,18.91 2.25,27.18 2.22,35.48 2.20,43.79 2.17,52.09 2.14,60.39 2.11,68.69 2.09,76.99 2.06,85.29 2.03,93.59 2.00,101.90 1.97,110.20 1.95,118.50 1.92,126.80 1.89,135.10 1.86,143.40 1.84,151.70 1.81,160.01 1.78,168.31 1.75,176.61 1.73,184.91 1.70,193.21 1.70,201.51 1.70,209.81 1.73,218.11 1.76,226.41 1.79,234.70 1.81,243.00 1.84,251.26 1.87,259.53 1.90,267.69 1.93,275.86 1.96,283.62 1.99,291.38 2.02,297.56 2.04,303.75 2.02,303.91 2.00,304.07 1.95,304.23 1.89,304.38 1.79,304.52 1.70,304.65 1.58,304.76 1.45,304.87 1.31,304.95 1.16,305.03 1.00,305.07 0.84,305.11 0.68,305.11 0.51,305.11 0.35,305.07 0.19,305.03 0.05,304.95 -0.09,304.87 -0.21,304.76 -0.34,304.65 -0.43,304.52 -0.52,304.38 -0.58,304.23 -0.64,304.07 -0.66,303.91 Z" fill="#1c7ed6" stroke="#1c7ed6" stroke-width="2" pointer-events="none"/></g><text font-size="30.921304561945px" font-family="Source Code Pro" font-weight="normal" line-height="30.921304561945px" letter-spacing="-0.03em" text-align="center" dominant-baseline="mathematical" alignment-baseline="mathematical" text-anchor="middle" fill="#1c7ed6" transform="translate(692.02, 95.64) rotate(0.00, 137.00, 36.00)"><tspan y="15.4606522809725px" x="141">NativeModules.
</tspan><tspan y="46.3819568429175px" x="141">
SuperCoolModule
</tspan></text><text font-size="87.3252711884076px" font-family="Source Code Pro" font-weight="normal" line-height="87.3252711884076px" letter-spacing="-0.03em" text-align="center" dominant-baseline="mathematical" alignment-baseline="mathematical" text-anchor="middle" fill="#1d1d1d" transform="translate(760.03, 205.33) rotate(0.00, 55.00, 48.50)"><tspan y="43.6626355942038px" x="59">JS
</tspan></text><text font-size="37.770592225420955px" font-family="Source Code Pro" font-weight="normal" line-height="37.770592225420955px" letter-spacing="-0.03em" text-align="center" dominant-baseline="mathematical" alignment-baseline="mathematical" text-anchor="middle" fill="#1d1d1d" transform="translate(742.91, 309.75) rotate(0.00, 80.50, 24.00)"><tspan y="18.885296112710478px" x="84.5">Runtime
</tspan></text><g id="11f48a18-a85e-4a7f-0abc-10ae1803aff2_svg" class="tl-centered-g" transform="translate(685.42, 522.69) rotate(0.00, 144.45, 130.00)"><path d="M 0.22,171.37 Q 0.22,171.37 0.25,165.15 0.27,158.94 0.30,151.14 0.32,143.34 0.30,135.14 0.29,126.94 0.22,118.63 0.16,110.32 0.10,101.99 0.03,93.66 -0.02,85.32 -0.08,76.98 -0.14,68.64 -0.21,60.30 -0.27,51.96 -0.33,43.62 -0.40,35.28 -0.46,26.94 -0.52,18.57 -0.58,10.21 1.28,6.05 3.14,1.89 9.96,0.76 16.78,-0.36 24.63,-0.55 32.48,-0.74 40.58,-0.75 48.68,-0.76 56.86,-0.72 65.03,-0.69 73.22,-0.64 81.41,-0.59 89.61,-0.54 97.81,-0.49 106.00,-0.44 114.20,-0.39 122.40,-0.34 130.59,-0.29 138.79,-0.28 146.99,-0.26 155.19,-0.29 163.39,-0.32 171.58,-0.34 179.78,-0.37 187.98,-0.39 196.18,-0.42 204.37,-0.44 212.57,-0.47 220.77,-0.49 228.97,-0.52 237.17,-0.54 245.36,-0.57 253.56,-0.59 261.76,-0.62 269.98,-0.64 278.20,-0.66 282.32,1.20 286.44,3.07 287.55,9.99 288.66,16.90 288.84,24.87 289.02,32.83 289.01,41.05 289.01,49.28 288.96,57.57 288.92,65.87 288.86,74.18 288.80,82.49 288.74,90.81 288.68,99.13 288.61,107.45 288.55,115.77 288.53,124.09 288.51,132.41 288.54,140.73 288.56,149.05 288.59,157.37 288.61,165.69 288.64,174.01 288.66,182.33 288.68,190.66 288.71,198.98 288.73,207.30 288.76,215.62 288.78,223.94 288.81,232.26 288.83,240.60 288.84,248.95 286.98,253.09 285.11,257.24 278.31,258.38 271.51,259.53 263.69,259.74 255.87,259.95 247.80,259.97 239.73,260.00 231.59,259.98 223.45,259.96 215.30,259.94 207.14,259.91 198.98,259.88 190.82,259.84 182.65,259.81 174.49,259.78 166.33,259.75 158.16,259.71 150.00,259.72 141.84,259.72 133.67,259.77 125.51,259.81 117.34,259.86 109.18,259.90 101.02,259.94 92.85,259.99 84.69,260.03 76.53,260.07 68.36,260.12 60.20,260.16 52.04,260.20 43.87,260.25 35.71,260.29 27.55,260.34 19.36,260.37 11.17,260.41 7.06,258.55 2.95,256.68 1.81,249.75 0.67,242.82 0.46,234.84 0.25,226.86 0.21,218.62 0.18,210.38 0.18,202.06 0.19,193.74 0.21,185.41 0.23,177.07 0.26,168.73 0.28,160.39 0.30,152.05 0.32,143.71 0.31,135.37 0.29,127.03 0.22,118.69 0.16,110.35 0.09,99.15 0.02,87.96 0.05,87.76 0.08,87.57 0.18,87.39 0.27,87.22 0.41,87.08 0.55,86.95 0.73,86.87 0.91,86.78 1.10,86.76 1.30,86.74 1.49,86.78 1.69,86.82 1.85,86.92 2.02,87.02 2.15,87.17 2.28,87.32 2.35,87.51 2.42,87.69 2.44,87.89 2.45,88.08 2.39,88.27 2.34,88.46 2.23,88.63 2.12,88.79 1.97,88.91 1.81,89.03 1.62,89.09 1.44,89.15 1.24,89.15 1.04,89.15 0.86,89.09 0.67,89.03 0.51,88.91 0.36,88.79 0.24,88.63 0.13,88.47 0.08,88.28 0.03,88.09 0.04,87.89 0.05,87.69 0.12,87.51 0.19,87.33 0.32,87.18 0.45,87.03 0.62,86.93 0.78,86.82 0.98,86.78 1.17,86.74 1.36,86.76 1.56,86.78 1.74,86.86 1.92,86.95 2.06,87.08 2.20,87.22 2.30,87.39 2.39,87.56 2.42,87.76 2.45,87.95 2.45,87.95 2.45,87.95 2.44,99.15 2.42,110.34 2.40,118.68 2.37,127.03 2.39,135.37 2.41,143.71 2.47,152.05 2.54,160.39 2.60,168.73 2.67,177.07 2.73,185.40 2.80,193.73 2.88,202.04 2.96,210.35 3.08,218.56 3.20,226.77 3.48,234.58 3.77,242.39 4.49,248.65 5.20,254.91 8.23,256.02 11.27,257.13 19.40,257.16 27.54,257.19 35.71,257.22 43.87,257.25 52.03,257.29 60.20,257.32 68.36,257.35 76.53,257.39 84.69,257.42 92.85,257.45 101.02,257.48 109.18,257.52 117.34,257.55 125.51,257.58 133.67,257.61 141.83,257.65 150.00,257.64 158.16,257.64 166.32,257.59 174.49,257.55 182.65,257.51 190.81,257.46 198.98,257.42 207.14,257.37 215.29,257.32 223.45,257.28 231.58,257.22 239.71,257.16 247.75,257.06 255.78,256.95 263.42,256.68 271.07,256.41 277.19,255.70 283.32,255.00 284.44,251.92 285.56,248.84 285.62,240.55 285.68,232.25 285.74,223.93 285.80,215.61 285.87,207.29 285.93,198.97 285.99,190.65 286.05,182.33 286.12,174.01 286.18,165.69 286.24,157.37 286.30,149.05 286.37,140.73 286.43,132.41 286.45,124.09 286.47,115.77 286.44,107.45 286.42,99.13 286.39,90.81 286.37,82.49 286.34,74.18 286.31,65.86 286.27,57.58 286.23,49.29 286.15,41.10 286.06,32.91 285.81,25.12 285.56,17.33 284.87,11.08 284.18,4.84 281.14,3.72 278.10,2.61 269.93,2.56 261.75,2.52 253.56,2.47 245.36,2.41 237.16,2.36 228.96,2.31 220.77,2.26 212.57,2.21 204.37,2.16 196.17,2.11 187.97,2.06 179.78,2.01 171.58,1.96 163.38,1.90 155.18,1.85 146.99,1.80 138.79,1.79 130.59,1.78 122.39,1.80 114.20,1.83 106.00,1.85 97.80,1.88 89.61,1.91 81.41,1.93 73.22,1.96 65.03,1.99 56.87,2.03 48.70,2.07 40.63,2.16 32.56,2.24 24.89,2.50 17.22,2.75 11.06,3.45 4.91,4.14 3.80,7.22 2.70,10.30 2.68,18.61 2.66,26.93 2.63,35.27 2.61,43.61 2.59,51.95 2.56,60.30 2.54,68.64 2.51,76.98 2.49,85.32 2.47,93.65 2.44,101.99 2.42,110.32 2.40,118.63 2.37,126.93 2.39,135.13 2.41,143.34 2.47,151.14 2.53,158.93 2.59,165.15 2.65,171.36 2.63,171.51 2.62,171.65 2.56,171.79 2.51,171.93 2.43,172.05 2.35,172.17 2.24,172.27 2.13,172.36 2.00,172.43 1.87,172.50 1.72,172.54 1.58,172.57 1.44,172.57 1.29,172.57 1.15,172.54 1.00,172.50 0.87,172.44 0.74,172.37 0.63,172.27 0.52,172.17 0.44,172.05 0.36,171.93 0.30,171.80 0.25,171.66 0.23,171.51 Z" fill="#7746f1" stroke="#7746f1" stroke-width="2" pointer-events="none"/></g><text font-size="71.02217043997996px" font-family="Source Code Pro" font-weight="normal" line-height="71.02217043997996px" letter-spacing="-0.03em" text-align="center" dominant-baseline="mathematical" alignment-baseline="mathematical" text-anchor="middle" fill="#7746f1" transform="translate(700.91, 616.19) rotate(0.00, 126.50, 40.50)"><tspan y="35.51108521998998px" x="130.5">BRIDGE
</tspan></text><g id="528e2034-8087-499e-2ed5-faccefb6dce9_svg" class="tl-centered-g" transform="translate(675.66, 888.67) rotate(0.00, 155.14, 151.26)"><path d="M 295.82,84.07 Q 295.82,84.07 297.08,86.14 298.35,88.21 299.73,90.90 301.11,93.59 301.93,95.37 302.75,97.15 303.61,99.24 304.47,101.32 305.34,103.72 306.21,106.12 307.03,108.83 307.86,111.55 308.63,114.59 309.39,117.62 310.08,120.96 310.78,124.30 311.35,127.95 311.93,131.59 312.35,135.54 312.76,139.48 312.97,143.72 313.18,147.95 313.13,152.46 313.08,156.96 312.73,161.72 312.38,166.48 311.68,171.46 310.99,176.45 309.90,181.62 308.82,186.80 307.29,192.12 305.76,197.45 303.76,202.88 301.75,208.32 299.22,213.80 296.69,219.28 293.60,224.76 290.52,230.23 286.85,235.62 283.18,241.01 278.91,246.25 274.64,251.49 269.77,256.49 264.89,261.50 259.40,266.18 253.92,270.87 247.84,275.15 241.77,279.44 235.13,283.23 228.49,287.02 221.33,290.23 214.17,293.45 206.54,296.00 198.91,298.55 190.89,300.36 182.87,302.17 174.53,303.18 166.20,304.18 157.65,304.31 149.10,304.44 140.44,303.66 131.78,302.87 123.13,301.13 114.48,299.39 105.97,296.68 97.46,293.97 89.22,290.29 80.97,286.61 73.13,281.97 65.28,277.34 57.97,271.78 50.66,266.23 44.02,259.82 37.37,253.41 31.50,246.22 25.64,239.02 20.67,231.14 15.70,223.26 11.72,214.80 7.74,206.34 4.83,197.42 1.93,188.51 0.16,179.28 -1.61,170.05 -2.20,160.65 -2.80,151.25 -2.20,141.83 -1.60,132.41 0.18,123.12 1.97,113.84 4.92,104.83 7.88,95.83 11.95,87.26 16.01,78.68 21.12,70.68 26.23,62.67 32.30,55.35 38.36,48.04 45.27,41.52 52.18,35.00 59.81,29.38 67.45,23.75 75.67,19.10 83.90,14.44 92.58,10.79 101.26,7.15 110.25,4.56 119.24,1.97 128.39,0.44 137.54,-1.08 146.72,-1.55 155.90,-2.03 164.96,-1.48 174.03,-0.93 182.85,0.59 191.68,2.12 200.15,4.57 208.63,7.02 216.64,10.32 224.66,13.61 232.13,17.67 239.61,21.73 246.46,26.46 253.32,31.19 259.51,36.48 265.69,41.78 271.16,47.55 276.64,53.32 281.38,59.46 286.12,65.60 290.11,72.01 294.10,78.42 297.36,85.01 300.61,91.59 303.15,98.26 305.68,104.93 307.53,111.60 309.37,118.26 310.56,124.86 311.75,131.45 312.33,137.91 312.91,144.36 312.94,150.61 312.96,156.87 312.49,162.88 312.02,168.88 311.11,174.60 310.21,180.32 308.92,185.73 307.63,191.13 306.03,196.19 304.42,201.26 302.56,205.96 300.70,210.67 298.63,215.01 296.57,219.36 294.36,223.34 292.15,227.31 289.84,230.93 287.54,234.54 285.20,237.80 282.85,241.06 280.51,243.98 278.17,246.90 275.88,249.49 273.58,252.08 271.37,254.36 269.16,256.64 267.08,258.63 264.99,260.63 263.06,262.36 261.13,264.09 259.36,265.56 257.60,267.04 256.02,268.27 254.45,269.50 253.08,270.51 251.71,271.52 248.57,273.59 245.44,275.65 245.43,275.65 245.43,275.65 245.43,275.64 245.42,275.64 248.37,273.33 251.32,271.02 252.63,269.95 253.95,268.89 255.47,267.60 256.99,266.32 258.70,264.81 260.41,263.31 262.29,261.55 264.17,259.79 266.18,257.76 268.20,255.73 270.32,253.41 272.44,251.09 274.64,248.47 276.84,245.86 279.10,242.93 281.35,240.00 283.61,236.75 285.86,233.49 288.09,229.90 290.31,226.31 292.46,222.37 294.60,218.43 296.61,214.14 298.62,209.85 300.44,205.21 302.26,200.57 303.83,195.58 305.41,190.60 306.67,185.28 307.94,179.96 308.84,174.33 309.74,168.70 310.21,162.79 310.67,156.88 310.65,150.72 310.63,144.56 310.06,138.21 309.49,131.86 308.32,125.37 307.16,118.87 305.35,112.31 303.54,105.74 301.05,99.17 298.56,92.60 295.36,86.12 292.16,79.63 288.23,73.32 284.30,67.00 279.64,60.95 274.97,54.90 269.59,49.21 264.20,43.52 258.11,38.30 252.02,33.07 245.26,28.41 238.51,23.74 231.15,19.74 223.79,15.73 215.89,12.48 207.99,9.22 199.64,6.80 191.29,4.38 182.59,2.86 173.89,1.35 164.95,0.80 156.01,0.25 146.97,0.71 137.92,1.17 128.89,2.67 119.87,4.17 111.01,6.72 102.14,9.27 93.59,12.85 85.03,16.43 76.92,21.02 68.81,25.60 61.28,31.14 53.75,36.67 46.94,43.09 40.12,49.50 34.14,56.70 28.16,63.91 23.12,71.79 18.08,79.67 14.07,88.11 10.05,96.55 7.14,105.41 4.22,114.27 2.45,123.42 0.68,132.56 0.08,141.83 -0.51,151.11 0.06,160.36 0.64,169.62 2.37,178.71 4.11,187.80 6.96,196.58 9.81,205.36 13.73,213.70 17.64,222.04 22.53,229.81 27.42,237.58 33.19,244.67 38.96,251.76 45.51,258.08 52.05,264.41 59.25,269.89 66.45,275.36 74.18,279.94 81.91,284.51 90.03,288.15 98.16,291.79 106.55,294.47 114.94,297.15 123.46,298.87 131.99,300.59 140.53,301.37 149.06,302.15 157.49,302.03 165.93,301.90 174.14,300.92 182.36,299.94 190.28,298.16 198.19,296.37 205.71,293.86 213.23,291.35 220.29,288.19 227.35,285.03 233.90,281.29 240.45,277.56 246.44,273.34 252.43,269.12 257.83,264.51 263.24,259.89 268.05,254.96 272.86,250.03 277.06,244.87 281.27,239.71 284.89,234.40 288.50,229.09 291.54,223.70 294.58,218.31 297.06,212.91 299.55,207.51 301.52,202.16 303.50,196.80 304.99,191.56 306.48,186.31 307.54,181.21 308.59,176.12 309.25,171.21 309.92,166.31 310.23,161.62 310.55,156.94 310.57,152.51 310.60,148.08 310.38,143.92 310.17,139.76 309.76,135.88 309.34,132.00 308.78,128.42 308.21,124.83 307.53,121.55 306.85,118.26 306.09,115.28 305.33,112.30 304.56,109.62 303.79,106.93 303.04,104.53 302.30,102.13 301.60,100.01 300.90,97.90 300.26,96.07 299.62,94.23 298.56,91.43 297.51,88.62 296.66,86.35 Z" fill="#ff9433" stroke="#ff9433" stroke-width="2" pointer-events="none" stroke-linecap="round" stroke-linejoin="round"/></g><text font-size="56.219688078070796px" font-family="Source Code Pro" font-weight="normal" line-height="56.219688078070796px" letter-spacing="-0.03em" text-align="center" dominant-baseline="mathematical" alignment-baseline="mathematical" text-anchor="middle" fill="#ff9433" transform="translate(697.28, 1001.32) rotate(0.00, 133.00, 33.00)"><tspan y="28.109844039035398px" x="137">Packages
</tspan></text><g id="3528a2f7-494c-4572-1525-7c1d2d67c1f3_svg" class="tl-centered-g" transform="translate(387.93, 1339.61) rotate(0.00, 124.41, 122.60)"><path d="M 26.77,198.19 Q 26.77,198.19 24.93,196.16 23.09,194.13 22.14,192.91 21.19,191.70 20.08,190.19 18.97,188.67 17.74,186.83 16.51,184.99 15.22,182.79 13.93,180.59 12.62,178.03 11.32,175.46 10.04,172.53 8.76,169.59 7.53,166.29 6.30,162.99 5.18,159.33 4.06,155.66 3.11,151.63 2.17,147.60 1.46,143.22 0.75,138.84 0.34,134.12 -0.07,129.41 -0.13,124.40 -0.19,119.39 0.17,114.11 0.54,108.84 1.41,103.35 2.27,97.86 3.69,92.22 5.11,86.58 7.14,80.87 9.18,75.16 11.87,69.46 14.56,63.76 17.93,58.17 21.31,52.58 25.40,47.20 29.48,41.83 34.28,36.79 39.07,31.74 44.56,27.15 50.04,22.55 56.18,18.52 62.31,14.49 69.04,11.14 75.77,7.79 83.00,5.24 90.24,2.68 97.88,1.01 105.53,-0.65 113.46,-1.35 121.39,-2.06 129.47,-1.72 137.56,-1.39 145.63,0.00 153.71,1.40 161.63,3.89 169.55,6.38 177.14,9.94 184.73,13.50 191.84,18.09 198.94,22.69 205.40,28.24 211.86,33.80 217.52,40.22 223.19,46.64 227.94,53.81 232.69,60.97 236.42,68.74 240.15,76.51 242.77,84.72 245.39,92.94 246.86,101.42 248.32,109.91 248.61,118.50 248.89,127.08 248.00,135.59 247.10,144.09 245.07,152.35 243.04,160.60 239.93,168.45 236.83,176.29 232.73,183.58 228.64,190.86 223.67,197.47 218.70,204.07 212.98,209.89 207.26,215.71 200.92,220.66 194.59,225.61 187.78,229.65 180.98,233.69 173.85,236.78 166.73,239.87 159.42,242.02 152.12,244.16 144.78,245.38 137.44,246.60 130.18,246.94 122.92,247.28 115.86,246.79 108.81,246.31 102.05,245.07 95.29,243.84 88.90,241.93 82.52,240.03 76.58,237.55 70.64,235.08 65.19,232.12 59.73,229.17 54.80,225.83 49.86,222.50 45.45,218.87 41.04,215.25 37.16,211.43 33.28,207.61 29.92,203.68 26.55,199.75 23.69,195.79 20.82,191.82 18.43,187.89 16.03,183.95 14.06,180.12 12.10,176.28 10.52,172.60 8.95,168.92 7.72,165.43 6.49,161.94 5.55,158.69 4.62,155.45 3.94,152.46 3.26,149.48 2.77,146.79 2.27,144.11 1.94,141.73 1.60,139.35 1.40,137.29 1.20,135.23 1.10,133.49 1.00,131.76 1.00,128.60 1.00,125.43 1.01,125.43 1.01,125.43 1.02,125.43 1.02,125.43 1.33,128.57 1.63,131.71 1.84,133.42 2.04,135.13 2.33,137.16 2.61,139.19 3.02,141.53 3.42,143.88 3.98,146.52 4.54,149.16 5.32,152.08 6.10,155.00 7.11,158.17 8.13,161.34 9.42,164.74 10.71,168.14 12.32,171.74 13.93,175.33 15.90,179.07 17.88,182.82 20.26,186.66 22.64,190.50 25.46,194.39 28.29,198.27 31.59,202.13 34.89,205.98 38.69,209.73 42.50,213.48 46.82,217.04 51.14,220.60 55.98,223.88 60.83,227.16 66.18,230.06 71.53,232.96 77.35,235.40 83.18,237.84 89.44,239.71 95.70,241.58 102.33,242.80 108.97,244.02 115.89,244.51 122.82,244.99 129.94,244.67 137.06,244.34 144.27,243.15 151.48,241.96 158.65,239.86 165.82,237.77 172.82,234.74 179.81,231.71 186.49,227.76 193.18,223.81 199.40,218.95 205.62,214.10 211.25,208.39 216.87,202.69 221.76,196.21 226.65,189.74 230.67,182.59 234.70,175.44 237.76,167.75 240.82,160.05 242.82,151.95 244.82,143.85 245.71,135.50 246.60,127.15 246.33,118.72 246.06,110.30 244.64,101.96 243.21,93.63 240.64,85.56 238.08,77.50 234.43,69.87 230.78,62.23 226.13,55.19 221.47,48.15 215.91,41.84 210.36,35.53 204.02,30.07 197.69,24.61 190.72,20.09 183.75,15.57 176.31,12.07 168.86,8.56 161.09,6.11 153.32,3.66 145.39,2.27 137.46,0.89 129.52,0.55 121.59,0.22 113.80,0.90 106.02,1.58 98.51,3.21 91.00,4.84 83.89,7.35 76.79,9.85 70.18,13.13 63.57,16.41 57.54,20.36 51.52,24.31 46.13,28.82 40.74,33.33 36.03,38.28 31.32,43.23 27.31,48.50 23.29,53.78 19.97,59.26 16.66,64.75 14.02,70.35 11.38,75.94 9.38,81.55 7.39,87.16 6.00,92.69 4.61,98.23 3.77,103.61 2.94,109.00 2.59,114.18 2.24,119.35 2.32,124.27 2.40,129.18 2.85,133.80 3.29,138.41 4.03,142.69 4.77,146.98 5.73,150.92 6.68,154.86 7.79,158.44 8.89,162.03 10.10,165.25 11.30,168.48 12.55,171.36 13.80,174.23 15.03,176.78 16.25,179.32 17.39,181.55 18.53,183.77 19.56,185.70 20.60,187.62 21.51,189.23 22.43,190.85 23.20,192.16 23.98,193.47 25.38,195.83 Z" fill="#ff2133" stroke="#ff2133" stroke-width="2" pointer-events="none" stroke-linecap="round" stroke-linejoin="round"/></g><g id="c293aaef-dfb6-4a8e-3d90-949244165e6e_svg" class="tl-centered-g" transform="translate(719.21, 1342.74) rotate(0.00, 124.41, 122.60)"><path d="M 244.67,151.27 Q 244.67,151.27 244.43,152.93 244.19,154.60 243.54,157.51 242.89,160.42 242.33,162.38 241.78,164.35 240.99,166.63 240.21,168.92 239.15,171.48 238.08,174.05 236.69,176.86 235.30,179.67 233.58,182.71 231.86,185.75 229.76,188.98 227.67,192.20 225.16,195.55 222.64,198.90 219.67,202.31 216.69,205.72 213.23,209.13 209.76,212.53 205.79,215.86 201.82,219.20 197.32,222.36 192.83,225.53 187.80,228.43 182.77,231.34 177.22,233.89 171.67,236.43 165.61,238.51 159.56,240.59 153.06,242.10 146.55,243.60 139.66,244.44 132.76,245.27 125.56,245.34 118.37,245.40 110.97,244.61 103.57,243.82 96.11,242.10 88.64,240.39 81.24,237.70 73.85,235.01 66.68,231.32 59.51,227.63 52.74,222.95 45.96,218.26 39.76,212.60 33.55,206.95 28.09,200.39 22.62,193.82 18.05,186.45 13.49,179.08 9.97,171.03 6.45,162.97 4.11,154.39 1.77,145.81 0.70,136.88 -0.35,127.95 -0.07,118.87 0.20,109.79 1.86,100.78 3.51,91.77 6.53,83.04 9.56,74.31 13.89,66.09 18.23,57.87 23.80,50.36 29.36,42.85 36.02,36.24 42.69,29.63 50.29,24.09 57.89,18.55 66.24,14.20 74.59,9.86 83.48,6.82 92.37,3.77 101.59,2.08 110.80,0.39 120.10,0.07 129.41,-0.23 138.58,0.79 147.76,1.83 156.59,4.15 165.43,6.48 173.73,10.01 182.03,13.53 189.63,18.13 197.24,22.73 204.00,28.26 210.76,33.79 216.57,40.08 222.39,46.38 227.18,53.27 231.98,60.15 235.71,67.46 239.44,74.76 242.11,82.31 244.77,89.86 246.39,97.49 248.01,105.12 248.64,112.67 249.26,120.23 248.96,127.58 248.65,134.94 247.51,141.97 246.37,149.01 244.49,155.63 242.61,162.25 240.10,168.39 237.59,174.53 234.57,180.14 231.55,185.75 228.12,190.80 224.70,195.84 220.98,200.32 217.26,204.79 213.36,208.70 209.45,212.61 205.45,215.97 201.45,219.32 197.44,222.15 193.43,224.99 189.49,227.33 185.55,229.68 181.74,231.58 177.94,233.48 174.33,234.98 170.71,236.49 167.34,237.65 163.97,238.81 160.88,239.69 157.79,240.56 155.02,241.20 152.24,241.85 149.80,242.31 147.36,242.77 145.27,243.08 143.17,243.38 141.44,243.57 139.70,243.75 136.72,243.90 133.74,244.05 133.74,244.05 133.74,244.04 133.74,244.04 133.73,244.03 136.68,243.60 139.62,243.16 141.33,242.88 143.04,242.59 145.10,242.20 147.16,241.81 149.57,241.28 151.97,240.74 154.69,240.01 157.41,239.28 160.43,238.31 163.44,237.34 166.73,236.10 170.01,234.86 173.53,233.30 177.05,231.74 180.76,229.81 184.47,227.88 188.31,225.54 192.16,223.20 196.08,220.39 200.00,217.59 203.92,214.29 207.84,210.99 211.67,207.16 215.50,203.33 219.15,198.94 222.80,194.55 226.17,189.61 229.53,184.66 232.50,179.16 235.47,173.66 237.94,167.64 240.40,161.62 242.25,155.13 244.11,148.63 245.23,141.74 246.36,134.84 246.67,127.63 246.98,120.42 246.37,113.00 245.77,105.59 244.19,98.10 242.61,90.62 240.01,83.21 237.40,75.80 233.75,68.63 230.09,61.46 225.40,54.70 220.70,47.93 215.00,41.75 209.30,35.56 202.67,30.12 196.04,24.69 188.59,20.16 181.13,15.64 172.99,12.17 164.84,8.70 156.17,6.40 147.50,4.10 138.49,3.08 129.48,2.05 120.34,2.35 111.21,2.64 102.16,4.29 93.11,5.94 84.38,8.92 75.64,11.90 67.44,16.15 59.23,20.40 51.76,25.83 44.30,31.26 37.75,37.74 31.20,44.22 25.73,51.58 20.26,58.94 15.99,67.01 11.72,75.07 8.74,83.63 5.77,92.19 4.13,101.03 2.49,109.87 2.20,118.77 1.92,127.68 2.95,136.45 3.98,145.21 6.27,153.64 8.55,162.06 12.00,169.97 15.44,177.88 19.91,185.12 24.38,192.36 29.74,198.81 35.10,205.25 41.19,210.81 47.27,216.37 53.92,220.98 60.56,225.59 67.60,229.22 74.63,232.85 81.90,235.50 89.16,238.14 96.49,239.83 103.82,241.52 111.08,242.30 118.35,243.08 125.42,243.02 132.49,242.96 139.26,242.15 146.03,241.33 152.41,239.85 158.80,238.37 164.74,236.32 170.68,234.27 176.12,231.77 181.57,229.26 186.49,226.39 191.41,223.53 195.81,220.40 200.20,217.28 204.07,213.99 207.94,210.70 211.29,207.32 214.64,203.95 217.52,200.59 220.40,197.22 222.85,193.94 225.30,190.65 227.35,187.50 229.40,184.35 231.09,181.39 232.79,178.42 234.17,175.68 235.55,172.93 236.70,170.47 237.85,168.00 238.81,165.82 239.76,163.65 240.54,161.79 241.32,159.92 242.38,157.16 243.44,154.40 244.05,152.83 Z" fill="#ff2133" stroke="#ff2133" stroke-width="2" pointer-events="none" stroke-linecap="round" stroke-linejoin="round"/></g><g id="221a671a-c35b-429b-3eb1-6093d28b0489_svg" class="tl-centered-g" transform="translate(1067.73, 1345.23) rotate(0.00, 124.41, 122.60)"><path d="M 105.30,244.98 Q 105.30,244.98 102.60,244.78 99.89,244.58 98.39,244.36 96.88,244.13 95.05,243.79 93.22,243.46 91.09,242.96 88.95,242.46 86.53,241.75 84.11,241.04 81.43,240.07 78.76,239.10 75.84,237.85 72.93,236.59 69.81,235.03 66.69,233.47 63.40,231.58 60.11,229.68 56.69,227.40 53.28,225.12 49.80,222.43 46.31,219.73 42.82,216.60 39.32,213.46 35.87,209.87 32.43,206.27 29.11,202.19 25.79,198.11 22.68,193.54 19.58,188.96 16.76,183.90 13.95,178.83 11.52,173.30 9.10,167.76 7.15,161.78 5.20,155.80 3.81,149.43 2.43,143.06 1.70,136.36 0.96,129.65 0.96,122.70 0.95,115.75 1.74,108.65 2.53,101.54 4.17,94.40 5.81,87.26 8.33,80.20 10.86,73.14 14.28,66.29 17.70,59.45 22.01,52.96 26.32,46.47 31.50,40.48 36.68,34.49 42.66,29.14 48.64,23.79 55.36,19.20 62.07,14.62 69.40,10.92 76.74,7.23 84.57,4.52 92.41,1.82 100.60,0.19 108.80,-1.43 117.19,-1.93 125.58,-2.42 134.01,-1.76 142.43,-1.09 150.72,0.73 159.00,2.56 166.98,5.52 174.95,8.49 182.45,12.54 189.95,16.58 196.82,21.62 203.69,26.66 209.80,32.59 215.91,38.52 221.13,45.20 226.36,51.88 230.62,59.18 234.88,66.47 238.10,74.22 241.32,81.96 243.47,90.00 245.62,98.03 246.69,106.19 247.76,114.35 247.77,122.48 247.78,130.60 246.76,138.54 245.75,146.49 243.79,154.11 241.82,161.73 238.98,168.90 236.15,176.08 232.54,182.72 228.93,189.36 224.66,195.38 220.39,201.39 215.57,206.73 210.76,212.07 205.52,216.69 200.27,221.31 194.72,225.20 189.17,229.09 183.43,232.26 177.68,235.42 171.85,237.88 166.02,240.33 160.19,242.12 154.37,243.90 148.64,245.06 142.91,246.22 137.35,246.81 131.78,247.41 126.46,247.49 121.13,247.58 116.08,247.23 111.03,246.89 106.30,246.17 101.57,245.45 97.19,244.42 92.80,243.40 88.79,242.15 84.77,240.90 81.13,239.48 77.49,238.06 74.23,236.54 70.96,235.02 68.07,233.46 65.18,231.90 62.64,230.35 60.10,228.80 57.90,227.33 55.70,225.86 53.83,224.49 51.96,223.12 50.40,221.87 48.84,220.63 47.59,219.54 46.34,218.46 44.21,216.40 42.09,214.35 42.09,214.35 42.10,214.34 42.10,214.34 42.10,214.34 44.41,216.16 46.72,217.98 48.03,218.98 49.35,219.97 50.94,221.13 52.54,222.29 54.44,223.59 56.33,224.89 58.55,226.29 60.76,227.68 63.31,229.12 65.87,230.56 68.77,232.01 71.67,233.46 74.91,234.88 78.16,236.29 81.76,237.62 85.37,238.95 89.33,240.13 93.28,241.31 97.59,242.27 101.90,243.24 106.54,243.93 111.18,244.62 116.14,244.96 121.09,245.29 126.32,245.21 131.54,245.13 137.00,244.55 142.45,243.97 148.08,242.84 153.70,241.71 159.41,239.96 165.13,238.22 170.85,235.82 176.58,233.41 182.22,230.31 187.86,227.22 193.31,223.40 198.76,219.59 203.91,215.06 209.06,210.53 213.79,205.30 218.52,200.06 222.72,194.16 226.92,188.26 230.47,181.75 234.02,175.24 236.81,168.19 239.60,161.15 241.54,153.67 243.48,146.19 244.48,138.40 245.48,130.60 245.49,122.62 245.49,114.65 244.45,106.63 243.41,98.62 241.30,90.73 239.20,82.84 236.05,75.23 232.89,67.62 228.72,60.46 224.55,53.29 219.43,46.73 214.31,40.16 208.32,34.33 202.33,28.51 195.60,23.55 188.86,18.60 181.50,14.62 174.15,10.64 166.33,7.72 158.50,4.79 150.38,2.99 142.25,1.18 133.98,0.52 125.71,-0.14 117.48,0.33 109.24,0.81 101.20,2.40 93.15,3.99 85.46,6.63 77.77,9.28 70.56,12.90 63.36,16.51 56.76,21.01 50.17,25.50 44.29,30.75 38.41,36.00 33.32,41.87 28.23,47.75 23.99,54.11 19.75,60.48 16.38,67.19 13.02,73.91 10.53,80.84 8.05,87.77 6.44,94.79 4.82,101.80 4.04,108.78 3.26,115.75 3.26,122.58 3.26,129.40 3.98,135.99 4.69,142.57 6.05,148.83 7.41,155.08 9.32,160.95 11.24,166.82 13.62,172.26 16.01,177.69 18.78,182.66 21.54,187.62 24.60,192.10 27.66,196.58 30.93,200.58 34.20,204.57 37.60,208.07 40.99,211.58 44.44,214.62 47.90,217.66 51.34,220.26 54.78,222.86 58.13,225.06 61.49,227.26 64.72,229.10 67.95,230.94 71.01,232.45 74.06,233.97 76.91,235.19 79.76,236.42 82.36,237.43 84.96,238.43 87.29,239.27 89.62,240.11 91.67,240.79 93.71,241.48 95.46,242.03 97.22,242.58 98.66,243.00 100.11,243.42 102.71,244.19 Z" fill="#ff2133" stroke="#ff2133" stroke-width="2" pointer-events="none" stroke-linecap="round" stroke-linejoin="round"/></g><g id="779d8527-75f2-4c0e-2d83-e14e2eabf1c6_svg" class="tl-centered-g" transform="translate(830.89, 786.21) rotate(0.00, 0.52, 47.23)"><defs><mask id="779d8527-75f2-4c0e-2d83-e14e2eabf1c6_clip"><rect x="-100" y="-100" width="201.04" height="294.46" fill="white"/><rect x="0.52" y="47.23" width="0" height="0" rx="2.95" ry="2.95" fill="black" opacity="1"/></mask></defs><g pointer-events="none" opacity="1" mask=""><path d="M 2.08,0.01 Q 2.08,0.01 1.92,11.56 1.76,23.12 1.62,34.68 1.47,46.24 1.33,57.79 1.18,69.35 1.04,80.91 0.90,92.46 0.88,92.61 0.86,92.75 0.79,92.87 0.72,93.00 0.61,93.10 0.51,93.20 0.38,93.25 0.25,93.31 0.10,93.33 -0.03,93.34 -0.17,93.31 -0.31,93.28 -0.43,93.20 -0.56,93.13 -0.65,93.01 -0.74,92.90 -0.79,92.77 -0.84,92.64 -0.85,92.49 -0.85,92.35 -0.81,92.21 -0.77,92.07 -0.69,91.96 -0.61,91.84 -0.50,91.75 -0.38,91.67 -0.24,91.62 -0.11,91.58 0.03,91.58 0.17,91.58 0.31,91.63 0.44,91.68 0.56,91.76 0.67,91.85 0.75,91.97 0.83,92.09 0.86,92.23 0.90,92.37 0.89,92.51 0.88,92.66 0.83,92.79 0.77,92.92 0.68,93.03 0.58,93.14 0.46,93.21 0.34,93.28 0.20,93.31 0.06,93.34 -0.08,93.33 -0.22,93.31 -0.35,93.25 -0.48,93.18 -0.58,93.08 -0.69,92.98 -0.75,92.86 -0.82,92.73 -0.84,92.59 -0.86,92.45 -0.86,92.45 -0.86,92.45 -0.74,80.89 -0.63,69.33 -0.52,57.77 -0.41,46.21 -0.30,34.66 -0.19,23.10 -0.09,11.54 -0.00,-0.01 0.01,-0.13 0.03,-0.26 0.07,-0.37 0.12,-0.49 0.19,-0.59 0.26,-0.69 0.36,-0.78 0.45,-0.86 0.56,-0.92 0.68,-0.97 0.80,-1.00 0.92,-1.03 1.05,-1.03 1.17,-1.03 1.29,-1.00 1.41,-0.96 1.53,-0.90 1.64,-0.85 1.73,-0.76 1.82,-0.68 1.89,-0.57 1.96,-0.47 2.01,-0.35 2.05,-0.23 2.06,-0.11 Z" fill="#1d1d1d" stroke="#1d1d1d" stroke-width="2.11" stroke-dasharray="none" stroke-dashoffset="none" stroke-linecap="round" stroke-linejoin="round" pointer-events="stroke"/><g><path d="M 8.15,80.6925075656033 L 0,94.46 -7.8469660532612,80.51635902072323" fill="none" stroke="#1d1d1d" stroke-width="4.23" stroke-linecap="round" stroke-linejoin="round" pointer-events="none"/></g></g></g><text font-size="24.717561409076072px" font-family="Source Code Pro" font-weight="normal" line-height="24.717561409076072px" letter-spacing="-0.03em" text-align="center" dominant-baseline="mathematical" alignment-baseline="mathematical" text-anchor="middle" fill="#ff2133" transform="translate(394.25, 1445.38) rotate(0.00, 111.00, 17.50)"><tspan y="12.358780704538036px" x="115">SuperCoolModule
</tspan></text><text font-size="24.717561409076072px" font-family="Source Code Pro" font-weight="normal" line-height="24.717561409076072px" letter-spacing="-0.03em" text-align="center" dominant-baseline="mathematical" alignment-baseline="mathematical" text-anchor="middle" fill="#ff2133" transform="translate(739.41, 1447.63) rotate(0.00, 103.50, 17.50)"><tspan y="12.358780704538036px" x="107.5">AnotherModule1
</tspan></text><text font-size="24.717561409076072px" font-family="Source Code Pro" font-weight="normal" line-height="24.717561409076072px" letter-spacing="-0.03em" text-align="center" dominant-baseline="mathematical" alignment-baseline="mathematical" text-anchor="middle" fill="#ff2133" transform="translate(1086.59, 1446.13) rotate(0.00, 103.50, 17.50)"><tspan y="12.358780704538036px" x="107.5">AnotherModule2
</tspan></text><text font-size="28px" font-family="Source Code Pro" font-weight="normal" line-height="28px" letter-spacing="-0.03em" text-align="center" dominant-baseline="mathematical" alignment-baseline="mathematical" text-anchor="middle" fill="#36b24d" transform="translate(683.33, 1247.39) rotate(0.00, 140.50, 19.00)"><tspan y="14px" x="144.5">RN***Package.java
</tspan></text><g id="6a8fa52b-0605-44f0-1159-8890bb247ef3_svg" class="tl-centered-g" transform="translate(609.18, 1293.39) rotate(0.00, 57.80, 45.93)"><defs><mask id="6a8fa52b-0605-44f0-1159-8890bb247ef3_clip"><rect x="-100" y="-100" width="315.59" height="291.86" fill="white"/><rect x="57.79" y="45.93" width="0" height="0" rx="4" ry="4" fill="black" opacity="1"/></mask></defs><g pointer-events="none" opacity="1" mask=""><path d="M -0.55,91.16 Q -0.55,91.16 13.72,79.86 28.00,68.57 42.27,57.26 56.54,45.96 70.81,34.65 85.07,23.34 99.34,12.03 113.60,0.71 113.69,0.66 113.79,0.60 113.90,0.58 114.00,0.56 114.11,0.58 114.22,0.60 114.32,0.64 114.42,0.69 114.49,0.77 114.57,0.85 114.62,0.95 114.67,1.04 114.68,1.15 114.69,1.26 114.67,1.37 114.65,1.48 114.60,1.57 114.54,1.67 114.46,1.74 114.38,1.81 114.28,1.85 114.18,1.90 114.07,1.90 113.96,1.91 113.85,1.88 113.75,1.86 113.66,1.80 113.57,1.74 113.50,1.65 113.43,1.57 113.39,1.47 113.36,1.36 113.35,1.25 113.35,1.14 113.38,1.04 113.42,0.94 113.48,0.85 113.54,0.76 113.63,0.70 113.72,0.63 113.83,0.60 113.93,0.57 114.04,0.57 114.15,0.58 114.25,0.62 114.35,0.65 114.44,0.72 114.52,0.79 114.58,0.88 114.64,0.98 114.67,1.08 114.69,1.19 114.68,1.30 114.67,1.41 114.63,1.51 114.59,1.61 114.51,1.69 114.44,1.77 114.44,1.77 114.44,1.77 100.20,13.11 85.95,24.45 71.71,35.79 57.47,47.13 43.24,58.48 29.00,69.83 14.78,81.19 0.55,92.55 0.46,92.61 0.36,92.66 0.26,92.69 0.16,92.73 0.05,92.73 -0.04,92.74 -0.15,92.72 -0.25,92.70 -0.35,92.66 -0.45,92.62 -0.53,92.55 -0.62,92.49 -0.68,92.40 -0.75,92.32 -0.80,92.22 -0.84,92.12 -0.86,92.02 -0.88,91.91 -0.87,91.81 -0.87,91.70 -0.84,91.60 -0.81,91.50 -0.75,91.40 -0.70,91.31 -0.62,91.24 Z" fill="#1d1d1d" stroke="#1d1d1d" stroke-width="2.11" stroke-dasharray="none" stroke-dashoffset="none" stroke-linecap="round" stroke-linejoin="round" pointer-events="stroke"/><g><path d="M 99.76,2.3578679130194784 L 115.59,0 109.71,14.884055049683809" fill="none" stroke="#1d1d1d" stroke-width="4.23" stroke-linecap="round" stroke-linejoin="round" pointer-events="none"/></g></g></g><g id="1e2e350f-95e5-451a-1229-67bd93cf053d_svg" class="tl-centered-g" transform="translate(938.47, 1293.39) rotate(0.00, 75.82, 52.14)"><defs><mask id="1e2e350f-95e5-451a-1229-67bd93cf053d_clip"><rect x="-100" y="-100" width="351.64" height="304.28" fill="white"/><rect x="75.82" y="52.14" width="0" height="0" rx="4" ry="4" fill="black" opacity="1"/></mask></defs><g pointer-events="none" opacity="1" mask=""><path d="M 151.13,105.01 Q 151.13,105.01 132.40,92.08 113.68,79.16 94.94,66.24 76.21,53.32 57.48,40.41 38.74,27.50 20.00,14.59 1.26,1.69 1.18,1.61 1.10,1.53 1.05,1.44 1.00,1.34 0.98,1.23 0.97,1.12 0.98,1.02 1.00,0.91 1.05,0.81 1.11,0.71 1.19,0.64 1.27,0.56 1.37,0.52 1.47,0.47 1.58,0.46 1.68,0.45 1.79,0.48 1.90,0.50 1.99,0.56 2.09,0.61 2.16,0.70 2.23,0.78 2.27,0.88 2.31,0.99 2.31,1.10 2.32,1.21 2.29,1.31 2.26,1.42 2.19,1.51 2.13,1.60 2.04,1.66 1.96,1.73 1.85,1.76 1.75,1.80 1.64,1.80 1.53,1.80 1.43,1.76 1.32,1.72 1.23,1.66 1.15,1.59 1.09,1.50 1.03,1.41 1.00,1.30 0.97,1.20 0.98,1.09 0.98,0.98 1.02,0.88 1.06,0.77 1.14,0.69 1.21,0.61 1.30,0.55 1.40,0.50 1.50,0.47 1.61,0.45 1.72,0.46 1.83,0.48 1.93,0.52 2.03,0.57 2.03,0.57 2.03,0.57 20.78,13.45 39.54,26.33 58.30,39.21 77.07,52.08 95.83,64.95 114.60,77.82 133.37,90.68 152.14,103.54 152.22,103.61 152.30,103.68 152.36,103.77 152.42,103.86 152.46,103.96 152.50,104.06 152.51,104.17 152.52,104.27 152.51,104.38 152.50,104.49 152.46,104.59 152.42,104.69 152.36,104.78 152.30,104.86 152.22,104.93 152.14,105.01 152.05,105.06 151.95,105.11 151.85,105.13 151.74,105.16 151.64,105.16 151.53,105.16 151.43,105.13 151.32,105.11 151.23,105.06 Z" fill="#1d1d1d" stroke="#1d1d1d" stroke-width="2.11" stroke-dasharray="none" stroke-dashoffset="none" stroke-linecap="round" stroke-linejoin="round" pointer-events="stroke"/><g><path d="M 6.88,14.443236835391907 L 0,0 15.95,1.259682298650084" fill="none" stroke="#1d1d1d" stroke-width="4.23" stroke-linecap="round" stroke-linejoin="round" pointer-events="none"/></g></g></g><g id="eea4dbe9-81e5-40f3-13e8-f756e42f3b17_svg" class="tl-centered-g" transform="translate(841.23, 1293.39) rotate(0.00, 4.49, 23.75)"><defs><mask id="eea4dbe9-81e5-40f3-13e8-f756e42f3b17_clip"><rect x="-100" y="-100" width="208.98" height="247.49" fill="white"/><rect x="4.49" y="23.74" width="0" height="0" rx="2" ry="2" fill="black" opacity="1"/></mask></defs><g pointer-events="none" opacity="1" mask=""><path d="M 8.06,47.66 Q 8.06,47.66 7.02,41.96 5.98,36.26 4.93,30.57 3.88,24.87 2.83,19.18 1.77,13.48 0.71,7.79 -0.34,2.10 -0.35,1.98 -0.35,1.86 -0.31,1.75 -0.28,1.63 -0.21,1.54 -0.14,1.44 -0.04,1.37 0.04,1.30 0.16,1.27 0.27,1.23 0.39,1.24 0.51,1.24 0.62,1.28 0.73,1.32 0.82,1.40 0.91,1.47 0.98,1.57 1.04,1.67 1.07,1.79 1.10,1.90 1.09,2.02 1.08,2.14 1.03,2.25 0.98,2.36 0.90,2.44 0.82,2.53 0.72,2.59 0.62,2.65 0.50,2.67 0.38,2.69 0.27,2.68 0.15,2.66 0.04,2.61 -0.05,2.55 -0.14,2.47 -0.22,2.39 -0.27,2.28 -0.33,2.17 -0.34,2.06 -0.36,1.94 -0.33,1.82 -0.31,1.71 -0.25,1.60 -0.19,1.50 -0.11,1.42 -0.02,1.34 0.08,1.29 0.19,1.25 0.31,1.24 0.43,1.23 0.54,1.26 0.66,1.29 0.76,1.35 0.86,1.42 0.93,1.51 1.01,1.60 1.05,1.71 1.09,1.82 1.09,1.82 1.09,1.82 2.18,7.51 3.27,13.20 4.36,18.89 5.46,24.57 6.56,30.26 7.66,35.94 8.78,41.63 9.89,47.31 9.90,47.42 9.90,47.54 9.88,47.65 9.86,47.76 9.82,47.86 9.77,47.96 9.70,48.05 9.64,48.14 9.55,48.21 9.46,48.28 9.36,48.32 9.26,48.37 9.15,48.39 9.04,48.41 8.92,48.41 8.81,48.40 8.71,48.37 8.60,48.33 8.50,48.28 8.41,48.22 8.33,48.14 8.25,48.06 8.19,47.97 8.13,47.87 8.10,47.76 Z" fill="#1d1d1d" stroke="#1d1d1d" stroke-width="2.11" stroke-dasharray="none" stroke-dashoffset="none" stroke-linecap="round" stroke-linejoin="round" pointer-events="stroke"/><g><path d="M -5.286182068182386,15.101532344170474 L 0,0 10.43,12.128734132160949" fill="none" stroke="#1d1d1d" stroke-width="4.23" stroke-linecap="round" stroke-linejoin="round" pointer-events="none"/></g></g></g><g id="17b491e1-b7e8-4439-0aa4-164c8cdbe4d2_svg" class="tl-centered-g" transform="translate(825.57, 1199.19) rotate(0.00, 2.21, 24.10)"><defs><mask id="17b491e1-b7e8-4439-0aa4-164c8cdbe4d2_clip"><rect x="-100" y="-100" width="204.43" height="248.2" fill="white"/><rect x="2.21" y="24.1" width="0" height="0" rx="2" ry="2" fill="black" opacity="1"/></mask></defs><g pointer-events="none" opacity="1" mask=""><path d="M -1.00,48.10 Q -1.00,48.10 -0.44,42.33 0.11,36.56 0.66,30.78 1.21,25.01 1.76,19.23 2.31,13.46 2.85,7.68 3.39,1.91 3.43,1.78 3.46,1.64 3.54,1.53 3.61,1.41 3.72,1.33 3.83,1.24 3.96,1.20 4.09,1.15 4.23,1.15 4.37,1.14 4.50,1.19 4.63,1.23 4.74,1.31 4.85,1.39 4.93,1.50 5.01,1.62 5.05,1.75 5.09,1.88 5.08,2.02 5.08,2.16 5.03,2.28 4.98,2.41 4.89,2.52 4.80,2.63 4.69,2.70 4.57,2.77 4.44,2.80 4.30,2.84 4.16,2.82 4.03,2.81 3.90,2.75 3.78,2.70 3.67,2.61 3.57,2.51 3.51,2.39 3.44,2.27 3.42,2.14 3.39,2.00 3.41,1.86 3.43,1.73 3.49,1.61 3.56,1.48 3.65,1.39 3.75,1.29 3.88,1.23 4.00,1.17 4.14,1.15 4.27,1.14 4.41,1.16 4.54,1.19 4.66,1.26 4.78,1.33 4.87,1.43 4.96,1.54 5.02,1.66 5.07,1.79 5.08,1.93 5.09,2.06 5.09,2.06 5.09,2.06 4.57,7.84 4.05,13.62 3.54,19.40 3.02,25.17 2.51,30.95 2.01,36.73 1.51,42.51 1.00,48.29 0.98,48.41 0.95,48.53 0.90,48.64 0.85,48.75 0.77,48.84 0.69,48.93 0.59,49.01 0.49,49.08 0.38,49.13 0.27,49.17 0.15,49.19 0.02,49.21 -0.09,49.20 -0.21,49.19 -0.32,49.15 -0.44,49.11 -0.54,49.04 -0.65,48.97 -0.73,48.88 -0.81,48.80 -0.87,48.69 -0.93,48.58 -0.97,48.46 -1.00,48.35 -1.00,48.22 Z" fill="#1d1d1d" stroke="#1d1d1d" stroke-width="2.11" stroke-dasharray="none" stroke-dashoffset="none" stroke-linecap="round" stroke-linejoin="round" pointer-events="stroke"/><g><path d="M -4.804603191623389,13.066066886912035 L 4.43,0 11.12,14.53043440127073" fill="none" stroke="#1d1d1d" stroke-width="4.23" stroke-linecap="round" stroke-linejoin="round" pointer-events="none"/></g></g></g><g id="053b6445-62cd-46fc-05b9-35ef8b1a714e_svg" class="tl-centered-g" transform="translate(702.17, 1775.99) rotate(0.00, 143.00, 131.44)"><path d="M -0.07,173.95 Q -0.07,173.95 -0.05,167.67 -0.03,161.38 -0.01,153.49 -0.00,145.60 -0.03,137.30 -0.06,129.01 -0.13,120.60 -0.20,112.20 -0.28,103.77 -0.35,95.34 -0.42,86.91 -0.49,78.47 -0.57,70.04 -0.64,61.60 -0.71,53.16 -0.79,44.72 -0.86,36.29 -0.93,27.85 -1.00,19.39 -1.07,10.93 0.79,6.74 2.65,2.55 9.79,1.40 16.92,0.25 25.17,0.04 33.41,-0.16 41.93,-0.20 50.46,-0.23 59.06,-0.21 67.65,-0.20 76.27,-0.18 84.89,-0.15 93.51,-0.12 102.14,-0.09 110.76,-0.07 119.39,-0.04 128.01,-0.01 136.64,0.01 145.26,-0.03 153.89,-0.08 162.51,-0.14 171.14,-0.19 179.76,-0.24 188.39,-0.29 197.01,-0.35 205.64,-0.40 214.26,-0.45 222.89,-0.50 231.51,-0.56 240.14,-0.61 248.76,-0.66 257.39,-0.71 266.03,-0.76 274.68,-0.81 278.91,1.04 283.14,2.91 284.32,9.90 285.50,16.89 285.74,24.95 285.99,33.01 286.04,41.34 286.10,49.67 286.11,58.08 286.12,66.48 286.12,74.90 286.12,83.32 286.11,91.75 286.11,100.18 286.11,108.61 286.10,117.03 286.14,125.46 286.18,133.89 286.26,142.32 286.34,150.75 286.42,159.17 286.51,167.60 286.59,176.03 286.67,184.46 286.75,192.89 286.83,201.31 286.91,209.74 287.00,218.17 287.08,226.60 287.16,235.03 287.24,243.48 287.32,251.93 285.45,256.11 283.59,260.30 276.45,261.45 269.31,262.61 261.06,262.83 252.81,263.05 244.27,263.09 235.74,263.13 227.13,263.13 218.53,263.13 209.90,263.11 201.27,263.09 192.64,263.08 184.01,263.06 175.38,263.04 166.74,263.02 158.11,263.00 149.48,262.98 140.84,263.04 132.21,263.10 123.58,263.16 114.94,263.23 106.31,263.29 97.68,263.35 89.04,263.41 80.41,263.47 71.78,263.53 63.14,263.59 54.51,263.66 45.88,263.72 37.24,263.78 28.61,263.84 19.95,263.90 11.30,263.95 7.07,262.09 2.83,260.23 1.66,253.23 0.48,246.24 0.25,238.16 0.02,230.09 -0.02,221.75 -0.07,213.41 -0.07,205.00 -0.07,196.59 -0.06,188.16 -0.05,179.72 -0.04,171.29 -0.02,162.85 -0.01,154.41 -0.00,145.98 -0.03,137.54 -0.06,129.10 -0.13,120.66 -0.20,112.23 -0.29,100.90 -0.37,89.57 -0.34,89.38 -0.31,89.19 -0.21,89.01 -0.12,88.84 0.01,88.70 0.15,88.56 0.33,88.48 0.51,88.40 0.70,88.38 0.90,88.35 1.09,88.40 1.28,88.44 1.45,88.54 1.62,88.64 1.75,88.79 1.88,88.94 1.95,89.12 2.03,89.30 2.04,89.50 2.05,89.70 2.00,89.89 1.94,90.08 1.83,90.24 1.72,90.40 1.57,90.52 1.41,90.64 1.23,90.71 1.04,90.77 0.84,90.77 0.65,90.77 0.46,90.71 0.27,90.65 0.11,90.53 -0.03,90.41 -0.14,90.25 -0.25,90.08 -0.31,89.89 -0.36,89.71 -0.35,89.51 -0.34,89.31 -0.27,89.13 -0.20,88.95 -0.07,88.80 0.05,88.64 0.22,88.54 0.38,88.44 0.58,88.40 0.77,88.35 0.96,88.38 1.16,88.40 1.34,88.48 1.52,88.56 1.66,88.70 1.80,88.83 1.90,89.00 1.99,89.18 2.02,89.37 2.05,89.57 2.05,89.57 2.05,89.57 2.05,100.89 2.05,112.22 2.03,120.66 2.02,129.09 2.05,137.53 2.08,145.97 2.15,154.41 2.23,162.84 2.30,171.28 2.37,179.72 2.45,188.14 2.53,196.57 2.61,204.98 2.70,213.38 2.84,221.69 2.97,229.99 3.27,237.89 3.58,245.79 4.33,252.13 5.08,258.46 8.23,259.57 11.38,260.67 19.99,260.69 28.60,260.70 37.24,260.72 45.87,260.74 54.50,260.76 63.14,260.78 71.77,260.80 80.40,260.82 89.04,260.84 97.67,260.86 106.30,260.88 114.94,260.90 123.57,260.92 132.21,260.94 140.84,260.96 149.47,260.98 158.11,260.92 166.74,260.86 175.37,260.79 184.00,260.73 192.64,260.67 201.27,260.61 209.89,260.54 218.52,260.48 227.12,260.40 235.72,260.32 244.21,260.20 252.71,260.08 260.80,259.79 268.88,259.50 275.36,258.77 281.84,258.04 282.93,254.94 284.03,251.85 284.03,243.44 284.03,235.04 284.04,226.61 284.04,218.18 284.05,209.75 284.05,201.33 284.06,192.90 284.06,184.47 284.07,176.04 284.07,167.61 284.08,159.18 284.08,150.76 284.09,142.33 284.09,133.90 284.05,125.47 284.01,117.04 283.93,108.62 283.85,100.19 283.77,91.76 283.68,83.34 283.60,74.92 283.51,66.50 283.41,58.10 283.32,49.71 283.18,41.41 283.03,33.12 282.72,25.23 282.41,17.34 281.65,11.01 280.90,4.68 277.75,3.57 274.60,2.46 265.99,2.44 257.39,2.41 248.77,2.38 240.14,2.36 231.52,2.33 222.89,2.30 214.27,2.27 205.64,2.24 197.02,2.21 188.39,2.18 179.77,2.15 171.14,2.13 162.52,2.10 153.89,2.07 145.27,2.04 136.64,2.01 128.02,2.06 119.39,2.11 110.77,2.17 102.14,2.22 93.52,2.27 84.90,2.33 76.28,2.38 67.66,2.44 59.07,2.51 50.48,2.57 41.99,2.69 33.50,2.80 25.42,3.08 17.35,3.36 10.88,4.09 4.40,4.81 3.30,7.91 2.20,11.01 2.19,19.42 2.19,27.84 2.17,36.27 2.16,44.71 2.14,53.15 2.13,61.59 2.12,70.03 2.10,78.46 2.09,86.90 2.07,95.34 2.06,103.76 2.05,112.19 2.03,120.60 2.02,129.00 2.05,137.30 2.08,145.59 2.15,153.48 2.22,161.37 2.28,167.66 2.35,173.94 2.33,174.09 2.32,174.24 2.26,174.37 2.21,174.51 2.13,174.63 2.05,174.75 1.94,174.85 1.83,174.95 1.70,175.02 1.57,175.08 1.43,175.12 1.28,175.16 1.14,175.16 0.99,175.16 0.85,175.12 0.71,175.09 0.58,175.02 0.45,174.95 0.34,174.86 0.23,174.76 0.14,174.64 0.06,174.52 0.01,174.38 -0.04,174.24 -0.06,174.10 Z" fill="#1d1d1d" stroke="#1d1d1d" stroke-width="2" pointer-events="none"/></g><text font-size="39.70062046561544px" font-family="Source Code Pro" font-weight="normal" line-height="39.70062046561544px" letter-spacing="-0.03em" text-align="center" dominant-baseline="mathematical" alignment-baseline="mathematical" text-anchor="middle" fill="#1d1d1d" transform="translate(749.42, 1886.94) rotate(0.00, 95.50, 25.00)"><tspan y="19.85031023280772px" x="99.5">Platform
</tspan></text><text font-size="28px" font-family="Source Code Pro" font-weight="normal" line-height="28px" letter-spacing="-0.03em" text-align="center" dominant-baseline="mathematical" alignment-baseline="mathematical" text-anchor="middle" fill="#1d1d1d" transform="translate(759.57, 1955.65) rotate(0.00, 77.00, 19.00)"><tspan y="14px" x="81">Java/ObjC
</tspan></text><g id="dee17b8e-476a-4224-2e32-bc189d77e80a_svg" class="tl-centered-g" transform="translate(554.04, 1587.92) rotate(0.00, 67.20, 86.03)"><defs><mask id="dee17b8e-476a-4224-2e32-bc189d77e80a_clip"><rect x="-100" y="-100" width="334.4" height="372.07" fill="white"/><rect x="67.2" y="86.03" width="0" height="0" rx="4" ry="4" fill="black" opacity="1"/></mask></defs><g pointer-events="none" opacity="1" mask=""><path d="M 0.75,-0.58 Q 0.75,-0.58 17.36,20.74 33.98,42.07 50.61,63.40 67.24,84.73 83.87,106.05 100.50,127.38 117.13,148.70 133.77,170.02 133.83,170.13 133.89,170.23 133.91,170.36 133.93,170.48 133.91,170.60 133.89,170.72 133.84,170.83 133.78,170.94 133.69,171.03 133.60,171.12 133.49,171.17 133.38,171.22 133.26,171.24 133.13,171.25 133.01,171.23 132.89,171.20 132.78,171.14 132.68,171.08 132.59,170.99 132.51,170.89 132.47,170.78 132.42,170.66 132.41,170.54 132.40,170.42 132.43,170.30 132.46,170.18 132.53,170.07 132.60,169.97 132.70,169.89 132.80,169.82 132.91,169.78 133.03,169.73 133.15,169.73 133.28,169.73 133.40,169.77 133.51,169.81 133.61,169.88 133.71,169.95 133.78,170.06 133.86,170.16 133.89,170.28 133.92,170.40 133.92,170.52 133.91,170.64 133.87,170.76 133.83,170.88 133.75,170.97 133.67,171.07 133.56,171.13 133.46,171.20 133.34,171.23 133.22,171.25 133.09,171.24 132.97,171.23 132.86,171.18 132.74,171.13 132.65,171.04 132.56,170.96 132.56,170.96 132.56,170.96 115.90,149.66 99.25,128.35 82.58,107.05 65.92,85.75 49.26,64.46 32.59,43.16 15.92,21.87 -0.75,0.58 -0.81,0.48 -0.86,0.38 -0.90,0.28 -0.93,0.17 -0.94,0.05 -0.95,-0.05 -0.93,-0.17 -0.90,-0.28 -0.86,-0.38 -0.81,-0.49 -0.74,-0.58 -0.67,-0.67 -0.58,-0.74 -0.49,-0.81 -0.38,-0.86 -0.28,-0.91 -0.16,-0.93 -0.05,-0.95 0.05,-0.94 0.17,-0.93 0.28,-0.90 0.39,-0.86 0.49,-0.80 0.58,-0.74 0.66,-0.66 Z" fill="#1d1d1d" stroke="#1d1d1d" stroke-width="2.11" stroke-dasharray="none" stroke-dashoffset="none" stroke-linecap="round" stroke-linejoin="round" pointer-events="stroke"/><g><path d="M 132.17,156.22542317564415 L 134.4,172.07 119.56,166.0743768267296" fill="none" stroke="#1d1d1d" stroke-width="4.23" stroke-linecap="round" stroke-linejoin="round" pointer-events="none"/></g></g></g><g id="946ef3d3-5133-438c-3927-ae60e76f49fe_svg" class="tl-centered-g" transform="translate(997.65, 1570.34) rotate(0.00, 63.13, 94.83)"><defs><mask id="946ef3d3-5133-438c-3927-ae60e76f49fe_clip"><rect x="-100" y="-100" width="326.25" height="389.65" fill="white"/><rect x="63.12" y="94.82" width="0" height="0" rx="4" ry="4" fill="black" opacity="1"/></mask></defs><g pointer-events="none" opacity="1" mask=""><path d="M 127.10,0.56 Q 127.10,0.56 111.43,24.04 95.76,47.53 80.10,71.01 64.44,94.50 48.78,117.99 33.13,141.48 17.48,164.97 1.82,188.46 1.73,188.56 1.63,188.66 1.51,188.73 1.39,188.80 1.25,188.82 1.11,188.84 0.97,188.82 0.83,188.80 0.71,188.74 0.59,188.67 0.49,188.57 0.39,188.47 0.33,188.34 0.27,188.22 0.26,188.08 0.24,187.94 0.27,187.80 0.30,187.67 0.37,187.55 0.44,187.43 0.55,187.33 0.65,187.24 0.78,187.19 0.91,187.14 1.05,187.13 1.19,187.12 1.32,187.16 1.46,187.19 1.58,187.27 1.69,187.35 1.78,187.46 1.86,187.57 1.91,187.70 1.96,187.83 1.96,187.97 1.96,188.11 1.91,188.25 1.87,188.38 1.79,188.49 1.70,188.60 1.59,188.68 1.47,188.76 1.34,188.80 1.20,188.84 1.06,188.83 0.92,188.83 0.79,188.78 0.66,188.72 0.56,188.63 0.45,188.55 0.38,188.43 0.30,188.31 0.27,188.17 0.24,188.03 0.25,187.89 0.27,187.76 0.33,187.63 0.38,187.50 0.38,187.50 0.38,187.50 16.02,164.00 31.65,140.49 47.28,116.98 62.91,93.48 78.53,69.97 94.16,46.46 109.77,22.94 125.39,-0.56 125.47,-0.66 125.55,-0.75 125.65,-0.82 125.75,-0.89 125.87,-0.94 125.98,-0.99 126.11,-1.00 126.23,-1.02 126.35,-1.01 126.47,-0.99 126.59,-0.95 126.71,-0.91 126.81,-0.84 126.91,-0.77 126.99,-0.68 127.08,-0.59 127.14,-0.48 127.20,-0.37 127.23,-0.25 127.26,-0.14 127.26,-0.01 127.26,0.10 127.24,0.22 127.21,0.34 127.15,0.45 Z" fill="#1d1d1d" stroke="#1d1d1d" stroke-width="2.11" stroke-dasharray="none" stroke-dashoffset="none" stroke-linecap="round" stroke-linejoin="round" pointer-events="stroke"/><g><path d="M 14.33,182.54877306295737 L 0,189.65 1.01,173.68248546915783" fill="none" stroke="#1d1d1d" stroke-width="4.23" stroke-linecap="round" stroke-linejoin="round" pointer-events="none"/></g></g></g><g id="9e124602-e82a-4882-1f16-75602fd35f0d_svg" class="tl-centered-g" transform="translate(841.51, 1602.56) rotate(0.00, 0.94, 78.72)"><defs><mask id="9e124602-e82a-4882-1f16-75602fd35f0d_clip"><rect x="-100" y="-100" width="201.89" height="357.43" fill="white"/><rect x="0.94" y="78.71" width="0" height="0" rx="4" ry="4" fill="black" opacity="1"/></mask></defs><g pointer-events="none" opacity="1" mask=""><path d="M 0.95,-0.01 Q 0.95,-0.01 1.15,19.41 1.35,38.84 1.56,58.27 1.76,77.70 1.98,97.13 2.19,116.56 2.41,135.99 2.63,155.42 2.61,155.54 2.59,155.66 2.54,155.77 2.48,155.88 2.39,155.97 2.30,156.06 2.19,156.11 2.08,156.17 1.95,156.18 1.83,156.20 1.71,156.17 1.58,156.15 1.48,156.08 1.37,156.02 1.29,155.92 1.20,155.83 1.16,155.72 1.11,155.60 1.10,155.48 1.09,155.35 1.13,155.23 1.16,155.11 1.23,155.01 1.29,154.90 1.39,154.82 1.49,154.75 1.61,154.71 1.73,154.67 1.85,154.66 1.98,154.66 2.10,154.70 2.21,154.74 2.31,154.81 2.41,154.89 2.49,154.99 2.56,155.09 2.59,155.21 2.63,155.33 2.62,155.46 2.62,155.58 2.57,155.70 2.53,155.82 2.45,155.91 2.37,156.01 2.26,156.07 2.15,156.14 2.03,156.17 1.91,156.19 1.79,156.18 1.66,156.17 1.55,156.12 1.44,156.07 1.34,155.98 1.25,155.90 1.19,155.79 1.13,155.68 1.11,155.56 1.09,155.43 1.09,155.43 1.09,155.43 0.84,136.01 0.60,116.58 0.34,97.15 0.09,77.72 -0.16,58.29 -0.42,38.86 -0.68,19.43 -0.95,0.01 -0.94,-0.10 -0.93,-0.21 -0.89,-0.32 -0.85,-0.43 -0.78,-0.53 -0.72,-0.62 -0.63,-0.70 -0.55,-0.78 -0.45,-0.83 -0.34,-0.89 -0.23,-0.91 -0.12,-0.94 -0.01,-0.94 0.10,-0.95 0.21,-0.92 0.32,-0.89 0.43,-0.84 0.53,-0.79 0.62,-0.71 0.70,-0.64 0.77,-0.54 0.84,-0.45 0.88,-0.34 0.92,-0.24 0.94,-0.12 Z" fill="#1d1d1d" stroke="#1d1d1d" stroke-width="2.11" stroke-dasharray="none" stroke-dashoffset="none" stroke-linecap="round" stroke-linejoin="round" pointer-events="stroke"/><g><path d="M 9.72,143.47855621502757 L 1.89,157.43 -6.275762374573907,143.67062774535142" fill="none" stroke="#1d1d1d" stroke-width="4.23" stroke-linecap="round" stroke-linejoin="round" pointer-events="none"/></g></g></g><g id="c1e90982-159f-4bdb-20f1-128853a0827d_svg" class="tl-centered-g" transform="translate(826.86, 408.73) rotate(0.00, 0.60, 48.98)"><defs><mask id="c1e90982-159f-4bdb-20f1-128853a0827d_clip"><rect x="-100" y="-100" width="201.21" height="297.96" fill="white"/><rect x="0.60" y="48.98" width="0" height="0" rx="3.06" ry="3.06" fill="black" opacity="1"/></mask></defs><g pointer-events="none" opacity="1" mask=""><path d="M 0.92,-0.01 Q 0.92,-0.01 1.03,11.98 1.14,23.97 1.26,35.97 1.38,47.97 1.51,59.96 1.64,71.96 1.77,83.95 1.90,95.95 1.88,96.06 1.87,96.18 1.81,96.28 1.76,96.38 1.68,96.47 1.59,96.55 1.49,96.60 1.38,96.65 1.27,96.66 1.15,96.68 1.04,96.65 0.92,96.63 0.82,96.57 0.72,96.51 0.64,96.42 0.57,96.33 0.52,96.23 0.48,96.12 0.47,96.00 0.46,95.89 0.49,95.77 0.52,95.66 0.59,95.56 0.65,95.47 0.74,95.39 0.83,95.32 0.94,95.28 1.05,95.24 1.17,95.24 1.29,95.24 1.40,95.28 1.51,95.31 1.60,95.38 1.70,95.45 1.76,95.55 1.83,95.64 1.86,95.76 1.90,95.87 1.89,95.99 1.89,96.10 1.84,96.21 1.80,96.32 1.73,96.41 1.65,96.50 1.55,96.56 1.46,96.62 1.34,96.65 1.23,96.68 1.11,96.66 1.00,96.65 0.89,96.60 0.78,96.56 0.70,96.48 0.61,96.40 0.56,96.30 0.50,96.19 0.48,96.08 0.46,95.96 0.46,95.96 0.46,95.96 0.30,83.97 0.13,71.97 -0.03,59.98 -0.19,47.98 -0.37,35.99 -0.55,24.00 -0.73,12.00 -0.92,0.01 -0.90,-0.09 -0.89,-0.20 -0.85,-0.31 -0.82,-0.41 -0.75,-0.50 -0.69,-0.60 -0.61,-0.67 -0.53,-0.75 -0.43,-0.80 -0.33,-0.85 -0.22,-0.88 -0.12,-0.91 -0.01,-0.91 0.09,-0.91 0.20,-0.89 0.31,-0.86 0.41,-0.81 0.51,-0.76 0.59,-0.69 0.68,-0.61 0.74,-0.52 0.81,-0.43 0.85,-0.33 0.89,-0.23 0.90,-0.12 Z" fill="#1d1d1d" stroke="#1d1d1d" stroke-width="2.11" stroke-dasharray="none" stroke-dashoffset="none" stroke-linecap="round" stroke-linejoin="round" pointer-events="stroke"/><g><path d="M 9.03,84.00584215848463 L 1.21,97.96 -6.960530790048245,84.20345877013871" fill="none" stroke="#1d1d1d" stroke-width="4.23" stroke-linecap="round" stroke-linejoin="round" pointer-events="none"/></g></g></g><text font-size="47.02038083705366px" font-family="Source Code Pro" font-weight="normal" line-height="47.02038083705366px" letter-spacing="-0.03em" text-align="left" dominant-baseline="mathematical" alignment-baseline="mathematical" text-anchor="start" fill="#1c7ed6" transform="translate(1043.30, 94.88) rotate(0.00, 407.00, 99.00)"><tspan y="23.51019041852683px" x="4">The Javascript layer is where 
</tspan><tspan y="70.53057125558048px" x="4">
you can call a method
</tspan><tspan y="117.55095209263415px" x="4">
registered on the bridge 
</tspan><tspan y="164.5713329296878px" x="4">
through a Native Module.
</tspan></text><text font-size="49.16469022287703px" font-family="Source Code Pro" font-weight="normal" line-height="49.16469022287703px" letter-spacing="-0.03em" text-align="left" dominant-baseline="mathematical" alignment-baseline="mathematical" text-anchor="start" fill="#7746f1" transform="translate(1022.47, 553.28) rotate(0.00, 509.50, 79.00)"><tspan y="24.582345111438514px" x="4">The bridge is responsible for
</tspan><tspan y="73.74703533431554px" x="4">
communication between Java/Objc &amp; JS
</tspan><tspan y="122.91172555719257px" x="4">
Runtime.
</tspan></text><text font-size="44.36290339308452px" font-family="Source Code Pro" font-weight="normal" line-height="44.36290339308452px" letter-spacing="-0.03em" text-align="left" dominant-baseline="mathematical" alignment-baseline="mathematical" text-anchor="start" fill="#36b24d" transform="translate(16.00, 1058.75) rotate(0.00, 321.00, 93.50)"><tspan y="22.18145169654226px" x="4">Each NativeModule has 
</tspan><tspan y="66.54435508962678px" x="4">
RN***Package.java file
</tspan><tspan y="110.90725848271131px" x="4">
which is responsible for 
</tspan><tspan y="155.27016187579582px" x="4">
loading it at runtime.
</tspan></text><text font-size="44.3216666741264px" font-family="Source Code Pro" font-weight="normal" line-height="44.3216666741264px" letter-spacing="-0.03em" text-align="left" dominant-baseline="mathematical" alignment-baseline="mathematical" text-anchor="start" fill="#ff9433" transform="translate(1037.40, 944.94) rotate(0.00, 623.50, 71.50)"><tspan y="22.1608333370632px" x="4">Packages is a Collection of all packages
</tspan><tspan y="66.4825000111896px" x="4">
registered with the bridge so when the app
</tspan><tspan y="110.80416668531599px" x="4">
loads, they will load the NativeModule instances.
</tspan></text><text font-size="45.20584516201872px" font-family="Source Code Pro" font-weight="normal" line-height="45.20584516201872px" letter-spacing="-0.03em" text-align="left" dominant-baseline="mathematical" alignment-baseline="mathematical" text-anchor="start" fill="#ff2133" transform="translate(1407.76, 1365.89) rotate(0.00, 559.00, 95.50)"><tspan y="22.60292258100936px" x="4">NativeModules register methods with a
</tspan><tspan y="67.80876774302808px" x="4">
@ReactMethod annotation which is used to
</tspan><tspan y="113.01461290504679px" x="4">
generate a list of what methods are exposed
</tspan><tspan y="158.22045806706552px" x="4">
by each module in JS runtime.
</tspan></text></svg>