<svg clip-rule="evenodd" fill-rule="evenodd" stroke-linejoin="round" stroke-miterlimit="2" viewBox="0 0 700 250" xmlns="http://www.w3.org/2000/svg"><g transform="matrix(1.01033 0 0 1.03941 317.481 324.45)"><path d="m-314.234-312.153h692.84v240.522h-692.84z" fill="none"/><g fill="#e2e7f0"><path d="m202.545 249.952c1.64 0 2.66-1.122 2.66-2.786 0-1.675-1.02-2.794-2.66-2.794-1.639 0-2.659 1.119-2.659 2.794 0 1.664 1.02 2.786 2.659 2.786zm.007-1.161c-.756 0-1.143-.693-1.143-1.636s.387-1.639 1.143-1.639c.743 0 1.13.696 1.13 1.639s-.387 1.636-1.13 1.636z" fill-rule="nonzero" transform="matrix(13.9867 0 0 13.5955 -2984.62441 -3624.751983)"/><path d="m206.183 251.873h1.499v-2.892h.046c.207.45.661.953 1.533.953 1.232 0 2.192-.974 2.192-2.782 0-1.858-1.002-2.78-2.188-2.78-.904 0-1.337.538-1.537.978h-.067v-.907h-1.478zm1.467-4.729c0-.963.408-1.579 1.136-1.579.743 0 1.137.644 1.137 1.579 0 .943-.401 1.598-1.137 1.598-.721 0-1.136-.634-1.136-1.598z" fill-rule="nonzero" transform="matrix(13.9867 0 0 13.5955 -2984.62441 -3624.751983)"/><path d="m214.912 249.952c1.336 0 2.237-.651 2.448-1.654l-1.386-.091c-.151.412-.538.626-1.038.626-.749 0-1.224-.496-1.224-1.302v-.003h3.68v-.412c0-1.836-1.112-2.744-2.54-2.744-1.59 0-2.621 1.13-2.621 2.797 0 1.713 1.017 2.783 2.681 2.783zm-1.2-3.353c.032-.615.5-1.108 1.164-1.108.651 0 1.102.464 1.105 1.108z" fill-rule="nonzero" transform="matrix(13.9867 0 0 13.5955 -2984.62441 -3624.751983)"/><path d="m221.853 250.074 1.499-.865v-2.803c0-1.26-.739-2.034-1.865-2.034-.802 0-1.383.394-1.625 1.024h-.064v-.953h-1.428v5.403h1.499v-3.124c.003-.696.418-1.104 1.023-1.104.602 0 .964.394.961 1.055z" transform="matrix(13.9867 0 0 13.5955 -2984.62441 -3624.751983)"/><path d="m201.602 246.722c.004-.696.419-1.104 1.024-1.104.602 0 .964.394.961 1.055v3.173h1.498v-3.44c0-1.26-.738-2.034-1.864-2.034-.802 0-1.383.394-1.626 1.024h-.063v-.953h-1.428v5.403h1.498z" fill-rule="nonzero" transform="matrix(13.9867 0 0 13.5955 -2852.32 -3524.01)"/><path d="m207.805 249.948c.799 0 1.316-.348 1.58-.851h.042v.749h1.421v-3.644c0-1.288-1.091-1.83-2.294-1.83-1.294 0-2.146.619-2.353 1.604l1.386.113c.102-.359.422-.623.96-.623.51 0 .802.257.802.7v.022c0 .348-.369.394-1.308.485-1.07.099-2.03.457-2.03 1.664 0 1.07.763 1.611 1.794 1.611zm.429-1.034c-.461 0-.791-.214-.791-.626 0-.422.348-.63.876-.704.327-.045.862-.123 1.041-.242v.573c0 .566-.468.999-1.126.999z" fill-rule="nonzero" transform="matrix(13.9867 0 0 13.5955 -2852.32 -3524.01)"/><path d="m213.87 242.671-1.498.865v.907h-.739v1.125h.739v2.815c-.008 1.059.714 1.583 1.801 1.537.387-.014.661-.091.812-.14l-.235-1.116c-.074.014-.232.05-.373.05-.299 0-.507-.113-.507-.528v-2.618h1.017v-1.125h-1.017z" transform="matrix(13.9867 0 0 13.5955 -2852.32 -3524.01)"/><path d="m215.862 244.443h1.499v5.404h-1.499z" fill-rule="nonzero" transform="matrix(13.9867 0 0 13.5955 -2852.32 -3524.01)"/><path d="m223.594 244.443h-1.586l-1.119 3.866h-.056l-1.123-3.866h-1.583l1.889 5.403h1.689z" fill-rule="nonzero" transform="matrix(13.9867 0 0 13.5955 -2852.32 -3524.01)"/><path d="m226.645 249.952c1.337 0 2.237-.651 2.448-1.654l-1.386-.091c-.151.412-.538.626-1.038.626-.749 0-1.224-.496-1.224-1.302v-.003h3.68v-.412c0-1.836-1.112-2.744-2.54-2.744-1.59 0-2.621 1.13-2.621 2.797 0 1.713 1.017 2.783 2.681 2.783zm-1.2-3.353c.032-.615.5-1.108 1.164-1.108.651 0 1.102.464 1.105 1.108z" fill-rule="nonzero" transform="matrix(13.9867 0 0 13.5955 -2852.32 -3524.01)"/></g><circle cx="732.476" cy="1733.11" fill="#2dd2be" r="11.983" transform="matrix(.989771 0 0 .962088 -547.848 -1888.02)"/><path d="m87.968 777.316 14.607 20.862c-4.487 5.244-7.198 12.052-7.198 19.488 0 5.56 1.516 10.768 4.157 15.236l-13.58 13.579c-14.557-9.637-34.379-8.046-47.198 4.772-14.635 14.635-14.635 38.398 0 53.033s38.398 14.635 53.033 0c12.819-12.818 14.41-32.64 4.772-47.198l13.579-13.579c4.468 2.641 9.677 4.157 15.237 4.157 6.497 0 12.514-2.07 17.428-5.586l10.308 8.649-8.035 9.576c-5.325 6.346-4.497 15.807 1.849 21.133l30.642 25.711c6.346 5.325 15.807 4.497 21.132-1.849l25.711-30.642c5.326-6.346 4.498-15.807-1.848-21.132l-30.642-25.712c-6.346-5.325-15.808-4.497-21.133 1.849l-8.034 9.576-10.303-8.645c1.875-3.916 2.925-8.301 2.925-12.928 0-16.558-13.443-30-30-30-3.701 0-7.246.671-10.521 1.899l-14.601-20.853c1.129-2.421 1.611-5.141 1.325-7.893l-5.332-51.201c-.551-5.286-3.858-9.886-8.693-12.093-4.835-2.206-10.477-1.689-14.83 1.359l-40.958 28.679c-4.354 3.049-6.769 8.173-6.35 13.471.42 5.299 3.612 9.979 8.391 12.305l46.29 22.522c2.487 1.21 5.208 1.687 7.87 1.455zm-6.785 84.544c8.78 8.781 8.78 23.039 0 31.82-8.781 8.781-23.039 8.781-31.82 0s-8.781-23.039 0-31.82 23.039-8.781 31.82 0zm101.097-22.555-25.711 30.642 30.641 25.711 25.712-30.641zm-56.903-36.639c8.278 0 15 6.721 15 15 0 8.278-6.722 15-15 15-8.279 0-15-6.722-15-15 0-8.279 6.721-15 15-15zm-38.717-40.293-46.289-22.523 40.957-28.678z" fill="#2dd4bf" transform="matrix(.989771 0 0 .962088 -314.234 -961.155)"/></g></svg>